<svg xmlns="http://www.w3.org/2000/svg" viewBox="0 0 600 120" width="600" height="120">
  <!-- Background -->
  <rect width="600" height="120" fill="none"/>
  
  <!-- Starburst -->
  <g transform="translate(300, 60)">
    <!-- Long rays -->
    <path d="M0,0 L-250,0 M0,0 L250,0" stroke="#f59e0b" stroke-width="3" opacity="0.7"/>
    <path d="M0,0 L0,-50 M0,0 L0,50" stroke="#f59e0b" stroke-width="3" opacity="0.7"/>
    <path d="M0,0 L-200,-40 M0,0 L200,40" stroke="#f59e0b" stroke-width="3" opacity="0.6"/>
    <path d="M0,0 L-200,40 M0,0 L200,-40" stroke="#f59e0b" stroke-width="3" opacity="0.6"/>
    
    <!-- Medium rays -->
    <path d="M0,0 L-150,-30 M0,0 L150,30" stroke="#f97316" stroke-width="2" opacity="0.5"/>
    <path d="M0,0 L-150,30 M0,0 L150,-30" stroke="#f97316" stroke-width="2" opacity="0.5"/>
    <path d="M0,0 L-120,-60 M0,0 L120,60" stroke="#f97316" stroke-width="2" opacity="0.5"/>
    <path d="M0,0 L-120,60 M0,0 L120,-60" stroke="#f97316" stroke-width="2" opacity="0.5"/>
    
    <!-- Short rays -->
    <path d="M0,0 L-80,-50 M0,0 L80,50" stroke="#ef4444" stroke-width="1.5" opacity="0.4"/>
    <path d="M0,0 L-80,50 M0,0 L80,-50" stroke="#ef4444" stroke-width="1.5" opacity="0.4"/>
    <path d="M0,0 L-100,-20 M0,0 L100,20" stroke="#ef4444" stroke-width="1.5" opacity="0.4"/>
    <path d="M0,0 L-100,20 M0,0 L100,-20" stroke="#ef4444" stroke-width="1.5" opacity="0.4"/>
    
    <!-- Center -->
    <circle cx="0" cy="0" r="25" fill="url(#sunGradient)"/>
  </g>
  
  <!-- Gradient for center -->
  <defs>
    <radialGradient id="sunGradient" cx="50%" cy="50%" r="50%" fx="50%" fy="50%">
      <stop offset="0%" style="stop-color:#ffffff; stop-opacity:1" />
      <stop offset="70%" style="stop-color:#f59e0b; stop-opacity:1" />
      <stop offset="100%" style="stop-color:#ef4444; stop-opacity:1" />
    </radialGradient>
  </defs>
</svg>